<svg width="273" height="77" viewBox="0 0 273 77" fill="none" xmlns="http://www.w3.org/2000/svg">
<mask id="path-1-outside-1_1_19" maskUnits="userSpaceOnUse" x="1" y="-3" width="270" height="72" fill="black">
<rect fill="white" x="1" y="-3" width="270" height="72"/>
<path d="M6.016 63V19.48H20.352C24.9173 19.48 28.3307 20.632 30.592 22.936C32.896 25.24 34.048 28.312 34.048 32.152V35.544C34.048 39.384 32.896 42.4773 30.592 44.824C28.3307 47.128 24.9173 48.28 20.352 48.28H13.696V63H6.016ZM20.352 26.84H13.696V40.92H20.352C22.2293 40.92 23.6587 40.4507 24.64 39.512C25.664 38.5733 26.176 37.2507 26.176 35.544V32.152C26.176 30.488 25.664 29.1867 24.64 28.248C23.6587 27.3093 22.2293 26.84 20.352 26.84ZM73.55 36.632V45.784C73.55 51.3307 72.1633 55.704 69.39 58.904C66.6167 62.0613 62.5633 63.64 57.23 63.64C51.854 63.64 47.7793 62.0613 45.006 58.904C42.2753 55.704 40.91 51.3307 40.91 45.784V36.632C40.91 31.0853 42.2753 26.7333 45.006 23.576C47.7793 20.4187 51.854 18.84 57.23 18.84C62.5633 18.84 66.6167 20.4187 69.39 23.576C72.1633 26.7333 73.55 31.0853 73.55 36.632ZM65.678 36.632C65.678 33.1333 64.9953 30.5093 63.63 28.76C62.2647 26.968 60.1313 26.072 57.23 26.072C54.3287 26.072 52.1953 26.968 50.83 28.76C49.4647 30.5093 48.782 33.1333 48.782 36.632V45.784C48.782 49.2827 49.4647 51.928 50.83 53.72C52.1953 55.512 54.3287 56.408 57.23 56.408C60.1313 56.408 62.2647 55.512 63.63 53.72C64.9953 51.928 65.678 49.2827 65.678 45.784V36.632ZM106.808 63L95.9275 43.992C95.2022 44.8027 94.4555 45.6133 93.6875 46.424C92.9622 47.2347 92.1942 48.0667 91.3835 48.92V63H83.7035V19.48H91.3835V40.152C94.6262 36.44 97.3995 32.92 99.7035 29.592C102.008 26.2213 103.992 22.8507 105.656 19.48H114.04C112.205 23.1493 110.242 26.6267 108.152 29.912C106.104 33.1547 103.928 36.1627 101.624 38.936L116.088 63H106.808ZM148.357 55.64V63H123.141V19.48H147.717V26.84H130.821V37.272H145.797V44.632H130.821V55.64H148.357ZM138.693 14.872H132.229L138.373 4.248L145.285 7.192L138.693 14.872ZM157.454 63V19.48H172.174C177.379 19.48 181.347 20.9307 184.078 23.832C186.808 26.7333 188.174 31 188.174 36.632V45.784C188.174 51.4587 186.808 55.7467 184.078 58.648C181.347 61.5493 177.379 63 172.174 63H157.454ZM171.854 26.84H165.134V55.64H171.854C174.883 55.64 177.038 54.8933 178.318 53.4C179.64 51.9067 180.302 49.368 180.302 45.784V36.632C180.302 33.0907 179.64 30.5733 178.318 29.08C177.038 27.5867 174.883 26.84 171.854 26.84ZM223.545 55.64V63H198.329V19.48H222.905V26.84H206.009V37.272H220.985V44.632H206.009V55.64H223.545ZM253.377 63L244.289 47.064L235.649 63H227.585L240.321 40.408L228.289 19.48H236.993L245.377 34.072L253.249 19.48H261.313L249.345 40.792L262.081 63H253.377Z"/>
</mask>
<path d="M6.016 63V19.48H20.352C24.9173 19.48 28.3307 20.632 30.592 22.936C32.896 25.24 34.048 28.312 34.048 32.152V35.544C34.048 39.384 32.896 42.4773 30.592 44.824C28.3307 47.128 24.9173 48.28 20.352 48.28H13.696V63H6.016ZM20.352 26.84H13.696V40.92H20.352C22.2293 40.92 23.6587 40.4507 24.64 39.512C25.664 38.5733 26.176 37.2507 26.176 35.544V32.152C26.176 30.488 25.664 29.1867 24.64 28.248C23.6587 27.3093 22.2293 26.84 20.352 26.84ZM73.55 36.632V45.784C73.55 51.3307 72.1633 55.704 69.39 58.904C66.6167 62.0613 62.5633 63.64 57.23 63.64C51.854 63.64 47.7793 62.0613 45.006 58.904C42.2753 55.704 40.91 51.3307 40.91 45.784V36.632C40.91 31.0853 42.2753 26.7333 45.006 23.576C47.7793 20.4187 51.854 18.84 57.23 18.84C62.5633 18.84 66.6167 20.4187 69.39 23.576C72.1633 26.7333 73.55 31.0853 73.55 36.632ZM65.678 36.632C65.678 33.1333 64.9953 30.5093 63.63 28.76C62.2647 26.968 60.1313 26.072 57.23 26.072C54.3287 26.072 52.1953 26.968 50.83 28.76C49.4647 30.5093 48.782 33.1333 48.782 36.632V45.784C48.782 49.2827 49.4647 51.928 50.83 53.72C52.1953 55.512 54.3287 56.408 57.23 56.408C60.1313 56.408 62.2647 55.512 63.63 53.72C64.9953 51.928 65.678 49.2827 65.678 45.784V36.632ZM106.808 63L95.9275 43.992C95.2022 44.8027 94.4555 45.6133 93.6875 46.424C92.9622 47.2347 92.1942 48.0667 91.3835 48.92V63H83.7035V19.48H91.3835V40.152C94.6262 36.44 97.3995 32.92 99.7035 29.592C102.008 26.2213 103.992 22.8507 105.656 19.48H114.04C112.205 23.1493 110.242 26.6267 108.152 29.912C106.104 33.1547 103.928 36.1627 101.624 38.936L116.088 63H106.808ZM148.357 55.64V63H123.141V19.48H147.717V26.84H130.821V37.272H145.797V44.632H130.821V55.64H148.357ZM138.693 14.872H132.229L138.373 4.248L145.285 7.192L138.693 14.872ZM157.454 63V19.48H172.174C177.379 19.48 181.347 20.9307 184.078 23.832C186.808 26.7333 188.174 31 188.174 36.632V45.784C188.174 51.4587 186.808 55.7467 184.078 58.648C181.347 61.5493 177.379 63 172.174 63H157.454ZM171.854 26.84H165.134V55.64H171.854C174.883 55.64 177.038 54.8933 178.318 53.4C179.64 51.9067 180.302 49.368 180.302 45.784V36.632C180.302 33.0907 179.64 30.5733 178.318 29.08C177.038 27.5867 174.883 26.84 171.854 26.84ZM223.545 55.64V63H198.329V19.48H222.905V26.84H206.009V37.272H220.985V44.632H206.009V55.64H223.545ZM253.377 63L244.289 47.064L235.649 63H227.585L240.321 40.408L228.289 19.48H236.993L245.377 34.072L253.249 19.48H261.313L249.345 40.792L262.081 63H253.377Z" fill="#E41F25"/>
<path d="M6.016 63H1.016V68H6.016V63ZM6.016 19.48V14.48H1.016V19.48H6.016ZM30.592 22.936L27.0236 26.4383L27.0399 26.455L27.0565 26.4715L30.592 22.936ZM30.592 44.824L27.0242 41.321L27.0236 41.3217L30.592 44.824ZM13.696 48.28V43.28H8.696V48.28H13.696ZM13.696 63V68H18.696V63H13.696ZM13.696 26.84V21.84H8.696V26.84H13.696ZM13.696 40.92H8.696V45.92H13.696V40.92ZM24.64 39.512L21.2614 35.8262L21.2222 35.8621L21.1839 35.8988L24.64 39.512ZM24.64 28.248L21.1839 31.8612L21.2222 31.8979L21.2614 31.9338L24.64 28.248ZM11.016 63V19.48H1.016V63H11.016ZM6.016 24.48H20.352V14.48H6.016V24.48ZM20.352 24.48C24.1387 24.48 26.035 25.4311 27.0236 26.4383L34.1604 19.4337C30.6263 15.8329 25.6959 14.48 20.352 14.48V24.48ZM27.0565 26.4715C28.2568 27.6719 29.048 29.3833 29.048 32.152H39.048C39.048 27.2407 37.5352 22.8081 34.1275 19.4005L27.0565 26.4715ZM29.048 32.152V35.544H39.048V32.152H29.048ZM29.048 35.544C29.048 38.3102 28.257 40.0654 27.0242 41.321L34.1598 48.3269C37.535 44.8892 39.048 40.4578 39.048 35.544H29.048ZM27.0236 41.3217C26.035 42.3289 24.1387 43.28 20.352 43.28V53.28C25.6959 53.28 30.6263 51.9271 34.1604 48.3263L27.0236 41.3217ZM20.352 43.28H13.696V53.28H20.352V43.28ZM8.696 48.28V63H18.696V48.28H8.696ZM13.696 58H6.016V68H13.696V58ZM20.352 21.84H13.696V31.84H20.352V21.84ZM8.696 26.84V40.92H18.696V26.84H8.696ZM13.696 45.92H20.352V35.92H13.696V45.92ZM20.352 45.92C23.0182 45.92 25.8774 45.2475 28.0961 43.1252L21.1839 35.8988C21.2883 35.7989 21.355 35.7903 21.2721 35.8175C21.1678 35.8518 20.8864 35.92 20.352 35.92V45.92ZM28.0186 43.1978C30.3054 41.1016 31.176 38.3071 31.176 35.544H21.176C21.176 35.9023 21.1221 36.0294 21.1292 36.011C21.1329 36.0013 21.1469 35.9693 21.1759 35.9266C21.2051 35.8836 21.2365 35.8491 21.2614 35.8262L28.0186 43.1978ZM31.176 35.544V32.152H21.176V35.544H31.176ZM31.176 32.152C31.176 29.3877 30.2787 26.6339 28.0186 24.5622L21.2614 31.9338C21.2437 31.9175 21.2162 31.8882 21.1884 31.8476C21.1606 31.8072 21.1452 31.7741 21.1392 31.7586C21.1267 31.7269 21.176 31.8302 21.176 32.152H31.176ZM28.0961 24.6348C25.8774 22.5125 23.0182 21.84 20.352 21.84V31.84C20.8864 31.84 21.1678 31.9082 21.2722 31.9425C21.355 31.9697 21.2883 31.9611 21.1839 31.8612L28.0961 24.6348ZM69.39 58.904L73.1466 62.2037L73.1576 62.1912L73.1684 62.1787L69.39 58.904ZM45.006 58.904L41.2026 62.1496L41.2258 62.1768L41.2494 62.2037L45.006 58.904ZM45.006 23.576L41.2494 20.2763L41.2367 20.2907L41.2242 20.3052L45.006 23.576ZM69.39 23.576L73.1466 20.2763L73.1466 20.2763L69.39 23.576ZM63.63 28.76L59.6528 31.7902L59.6705 31.8134L59.6884 31.8364L63.63 28.76ZM50.83 28.76L54.7716 31.8364L54.7895 31.8134L54.8072 31.7902L50.83 28.76ZM50.83 53.72L54.8072 50.6898L54.8072 50.6898L50.83 53.72ZM63.63 53.72L59.6528 50.6898L59.6528 50.6898L63.63 53.72ZM68.55 36.632V45.784H78.55V36.632H68.55ZM68.55 45.784C68.55 50.5072 67.3797 53.5891 65.6116 55.6293L73.1684 62.1787C76.9469 57.8189 78.55 52.1542 78.55 45.784H68.55ZM65.6334 55.6043C64.0529 57.4036 61.5404 58.64 57.23 58.64V68.64C63.5863 68.64 69.1804 66.719 73.1466 62.2037L65.6334 55.6043ZM57.23 58.64C52.8625 58.64 50.3356 57.3951 48.7626 55.6043L41.2494 62.2037C45.2231 66.7276 50.8455 68.64 57.23 68.64V58.64ZM48.8094 55.6584C47.0684 53.6181 45.91 50.525 45.91 45.784H35.91C35.91 52.1363 37.4823 57.7899 41.2026 62.1496L48.8094 55.6584ZM45.91 45.784V36.632H35.91V45.784H45.91ZM45.91 36.632C45.91 31.8866 47.07 28.833 48.7878 26.8468L41.2242 20.3052C37.4807 24.6337 35.91 30.284 35.91 36.632H45.91ZM48.7626 26.8757C50.3356 25.0849 52.8625 23.84 57.23 23.84V13.84C50.8455 13.84 45.2231 15.7524 41.2494 20.2763L48.7626 26.8757ZM57.23 23.84C61.5404 23.84 64.0529 25.0764 65.6334 26.8757L73.1466 20.2763C69.1804 15.761 63.5863 13.84 57.23 13.84V23.84ZM65.6334 26.8757C67.3782 28.862 68.55 31.9046 68.55 36.632H78.55C78.55 30.2661 76.9485 24.6046 73.1466 20.2763L65.6334 26.8757ZM70.678 36.632C70.678 32.6203 69.9186 28.6908 67.5716 25.6836L59.6884 31.8364C60.0721 32.3279 60.678 33.6464 60.678 36.632H70.678ZM67.6072 25.7298C65.0333 22.3516 61.2 21.072 57.23 21.072V31.072C59.0626 31.072 59.496 31.5844 59.6528 31.7902L67.6072 25.7298ZM57.23 21.072C53.26 21.072 49.4267 22.3516 46.8528 25.7298L54.8072 31.7902C54.964 31.5844 55.3974 31.072 57.23 31.072V21.072ZM46.8884 25.6836C44.5414 28.6908 43.782 32.6203 43.782 36.632H53.782C53.782 33.6464 54.3879 32.3279 54.7716 31.8364L46.8884 25.6836ZM43.782 36.632V45.784H53.782V36.632H43.782ZM43.782 45.784C43.782 49.8089 44.5467 53.7234 46.8528 56.7502L54.8072 50.6898C54.3826 50.1326 53.782 48.7564 53.782 45.784H43.782ZM46.8528 56.7502C49.4267 60.1284 53.26 61.408 57.23 61.408V51.408C55.3974 51.408 54.964 50.8956 54.8072 50.6898L46.8528 56.7502ZM57.23 61.408C61.2 61.408 65.0333 60.1284 67.6072 56.7502L59.6528 50.6898C59.496 50.8956 59.0626 51.408 57.23 51.408V61.408ZM67.6072 56.7502C69.9133 53.7234 70.678 49.8089 70.678 45.784H60.678C60.678 48.7564 60.0774 50.1326 59.6528 50.6898L67.6072 56.7502ZM70.678 45.784V36.632H60.678V45.784H70.678ZM106.808 63L102.468 65.4838L103.908 68H106.808V63ZM95.9275 43.992L100.267 41.5082L96.8234 35.4921L92.2013 40.658L95.9275 43.992ZM93.6875 46.424L90.0577 42.9853L90.0088 43.037L89.9613 43.09L93.6875 46.424ZM91.3835 48.92L87.7585 45.4763L86.3835 46.9236V48.92H91.3835ZM91.3835 63V68H96.3835V63H91.3835ZM83.7035 63H78.7035V68H83.7035V63ZM83.7035 19.48V14.48H78.7035V19.48H83.7035ZM91.3835 19.48H96.3835V14.48H91.3835V19.48ZM91.3835 40.152H86.3835V53.4757L95.1491 43.4415L91.3835 40.152ZM99.7035 29.592L103.814 32.438L103.823 32.4258L103.831 32.4135L99.7035 29.592ZM105.656 19.48V14.48H102.548L101.172 17.2667L105.656 19.48ZM114.04 19.48L118.512 21.7161L122.13 14.48H114.04V19.48ZM108.152 29.912L103.933 27.2276L103.929 27.2348L103.924 27.242L108.152 29.912ZM101.624 38.936L97.7775 35.7409L95.51 38.4704L97.338 41.5118L101.624 38.936ZM116.088 63V68H124.927L120.373 60.4242L116.088 63ZM111.147 60.5162L100.267 41.5082L91.5881 46.4758L102.468 65.4838L111.147 60.5162ZM92.2013 40.658C91.5084 41.4324 90.794 42.2082 90.0577 42.9853L97.3173 49.8627C98.117 49.0185 98.8959 48.1729 99.6537 47.326L92.2013 40.658ZM89.9613 43.09C89.2717 43.8607 88.5376 44.6561 87.7585 45.4763L95.0085 52.3637C95.8507 51.4772 96.6526 50.6086 97.4137 49.758L89.9613 43.09ZM86.3835 48.92V63H96.3835V48.92H86.3835ZM91.3835 58H83.7035V68H91.3835V58ZM88.7035 63V19.48H78.7035V63H88.7035ZM83.7035 24.48H91.3835V14.48H83.7035V24.48ZM86.3835 19.48V40.152H96.3835V19.48H86.3835ZM95.1491 43.4415C98.4896 39.6174 101.384 35.9491 103.814 32.438L95.5925 26.7459C93.4152 29.8909 90.7627 33.2626 87.6179 36.8625L95.1491 43.4415ZM103.831 32.4135C106.257 28.8652 108.362 25.292 110.139 21.6933L101.172 17.2667C99.6206 20.4094 97.7582 23.5775 95.5757 26.7705L103.831 32.4135ZM105.656 24.48H114.04V14.48H105.656V24.48ZM109.567 17.2439C107.805 20.7677 105.927 24.0947 103.933 27.2276L112.37 32.5964C114.557 29.1586 116.604 25.531 118.512 21.7161L109.567 17.2439ZM103.924 27.242C101.984 30.3131 99.9347 33.1443 97.7775 35.7409L105.469 42.1311C107.92 39.181 110.223 35.9962 112.379 32.582L103.924 27.242ZM97.338 41.5118L111.802 65.5758L120.373 60.4242L105.909 36.3602L97.338 41.5118ZM116.088 58H106.808V68H116.088V58ZM148.357 55.64H153.357V50.64H148.357V55.64ZM148.357 63V68H153.357V63H148.357ZM123.141 63H118.141V68H123.141V63ZM123.141 19.48V14.48H118.141V19.48H123.141ZM147.717 19.48H152.717V14.48H147.717V19.48ZM147.717 26.84V31.84H152.717V26.84H147.717ZM130.821 26.84V21.84H125.821V26.84H130.821ZM130.821 37.272H125.821V42.272H130.821V37.272ZM145.797 37.272H150.797V32.272H145.797V37.272ZM145.797 44.632V49.632H150.797V44.632H145.797ZM130.821 44.632V39.632H125.821V44.632H130.821ZM130.821 55.64H125.821V60.64H130.821V55.64ZM138.693 14.872V19.872H140.991L142.487 18.1286L138.693 14.872ZM132.229 14.872L127.901 12.3689L123.562 19.872H132.229V14.872ZM138.373 4.248L140.332 -0.352123L136.26 -2.08646L134.045 1.74487L138.373 4.248ZM145.285 7.192L149.079 10.4486L153.526 5.26747L147.244 2.59188L145.285 7.192ZM143.357 55.64V63H153.357V55.64H143.357ZM148.357 58H123.141V68H148.357V58ZM128.141 63V19.48H118.141V63H128.141ZM123.141 24.48H147.717V14.48H123.141V24.48ZM142.717 19.48V26.84H152.717V19.48H142.717ZM147.717 21.84H130.821V31.84H147.717V21.84ZM125.821 26.84V37.272H135.821V26.84H125.821ZM130.821 42.272H145.797V32.272H130.821V42.272ZM140.797 37.272V44.632H150.797V37.272H140.797ZM145.797 39.632H130.821V49.632H145.797V39.632ZM125.821 44.632V55.64H135.821V44.632H125.821ZM130.821 60.64H148.357V50.64H130.821V60.64ZM138.693 9.872H132.229V19.872H138.693V9.872ZM136.557 17.3751L142.701 6.75112L134.045 1.74487L127.901 12.3689L136.557 17.3751ZM136.414 8.84812L143.326 11.7921L147.244 2.59188L140.332 -0.352123L136.414 8.84812ZM141.491 3.93544L134.899 11.6154L142.487 18.1286L149.079 10.4486L141.491 3.93544ZM157.454 63H152.454V68H157.454V63ZM157.454 19.48V14.48H152.454V19.48H157.454ZM184.078 23.832L187.719 20.4052L187.719 20.4052L184.078 23.832ZM184.078 58.648L187.719 62.0748L187.719 62.0748L184.078 58.648ZM165.134 26.84V21.84H160.134V26.84H165.134ZM165.134 55.64H160.134V60.64H165.134V55.64ZM178.318 53.4L174.575 50.0848L174.548 50.1152L174.521 50.146L178.318 53.4ZM178.318 29.08L174.521 32.334L174.548 32.3648L174.575 32.3952L178.318 29.08ZM162.454 63V19.48H152.454V63H162.454ZM157.454 24.48H172.174V14.48H157.454V24.48ZM172.174 24.48C176.444 24.48 178.917 25.6444 180.437 27.2588L187.719 20.4052C183.777 16.2169 178.314 14.48 172.174 14.48V24.48ZM180.437 27.2588C181.99 28.9089 183.174 31.7458 183.174 36.632H193.174C193.174 30.2542 191.627 24.5578 187.719 20.4052L180.437 27.2588ZM183.174 36.632V45.784H193.174V36.632H183.174ZM183.174 45.784C183.174 50.725 181.984 53.5773 180.437 55.2212L187.719 62.0748C191.633 57.916 193.174 52.1924 193.174 45.784H183.174ZM180.437 55.2212C178.917 56.8356 176.444 58 172.174 58V68C178.314 68 183.777 66.2631 187.719 62.0748L180.437 55.2212ZM172.174 58H157.454V68H172.174V58ZM171.854 21.84H165.134V31.84H171.854V21.84ZM160.134 26.84V55.64H170.134V26.84H160.134ZM165.134 60.64H171.854V50.64H165.134V60.64ZM171.854 60.64C175.552 60.64 179.468 59.7403 182.114 56.654L174.521 50.146C174.52 50.147 174.518 50.1502 174.511 50.1563C174.504 50.1625 174.489 50.1748 174.462 50.1919C174.41 50.2259 174.3 50.2877 174.104 50.3556C173.695 50.4976 172.983 50.64 171.854 50.64V60.64ZM182.06 56.7152C184.629 53.8157 185.302 49.7151 185.302 45.784H175.302C175.302 49.0209 174.652 49.9977 174.575 50.0848L182.06 56.7152ZM185.302 45.784V36.632H175.302V45.784H185.302ZM185.302 36.632C185.302 32.7247 184.622 28.6564 182.06 25.7648L174.575 32.3952C174.659 32.4902 175.302 33.4566 175.302 36.632H185.302ZM182.114 25.826C179.468 22.7397 175.552 21.84 171.854 21.84V31.84C172.983 31.84 173.695 31.9824 174.104 32.1244C174.3 32.1923 174.41 32.2541 174.462 32.2881C174.489 32.3052 174.504 32.3175 174.511 32.3237C174.518 32.3298 174.52 32.333 174.521 32.334L182.114 25.826ZM223.545 55.64H228.545V50.64H223.545V55.64ZM223.545 63V68H228.545V63H223.545ZM198.329 63H193.329V68H198.329V63ZM198.329 19.48V14.48H193.329V19.48H198.329ZM222.905 19.48H227.905V14.48H222.905V19.48ZM222.905 26.84V31.84H227.905V26.84H222.905ZM206.009 26.84V21.84H201.009V26.84H206.009ZM206.009 37.272H201.009V42.272H206.009V37.272ZM220.985 37.272H225.985V32.272H220.985V37.272ZM220.985 44.632V49.632H225.985V44.632H220.985ZM206.009 44.632V39.632H201.009V44.632H206.009ZM206.009 55.64H201.009V60.64H206.009V55.64ZM218.545 55.64V63H228.545V55.64H218.545ZM223.545 58H198.329V68H223.545V58ZM203.329 63V19.48H193.329V63H203.329ZM198.329 24.48H222.905V14.48H198.329V24.48ZM217.905 19.48V26.84H227.905V19.48H217.905ZM222.905 21.84H206.009V31.84H222.905V21.84ZM201.009 26.84V37.272H211.009V26.84H201.009ZM206.009 42.272H220.985V32.272H206.009V42.272ZM215.985 37.272V44.632H225.985V37.272H215.985ZM220.985 39.632H206.009V49.632H220.985V39.632ZM201.009 44.632V55.64H211.009V44.632H201.009ZM206.009 60.64H223.545V50.64H206.009V60.64ZM253.377 63L249.034 65.4769L250.472 68H253.377V63ZM244.289 47.064L248.632 44.5871L244.179 36.7772L239.893 44.6809L244.289 47.064ZM235.649 63V68H238.626L240.045 65.3831L235.649 63ZM227.585 63L223.229 60.5446L219.027 68H227.585V63ZM240.321 40.408L244.677 42.8634L246.074 40.3837L244.656 37.9159L240.321 40.408ZM228.289 19.48V14.48H219.647L223.954 21.9721L228.289 19.48ZM236.993 19.48L241.328 16.9891L239.887 14.48H236.993V19.48ZM245.377 34.072L241.042 36.5629L245.515 44.3479L249.777 36.4459L245.377 34.072ZM253.249 19.48V14.48H250.265L248.849 17.106L253.249 19.48ZM261.313 19.48L265.673 21.9282L269.855 14.48H261.313V19.48ZM249.345 40.792L244.985 38.3438L243.596 40.8179L245.008 43.2794L249.345 40.792ZM262.081 63V68H270.712L266.418 60.5126L262.081 63ZM257.72 60.5231L248.632 44.5871L239.946 49.5409L249.034 65.4769L257.72 60.5231ZM239.893 44.6809L231.253 60.6169L240.045 65.3831L248.685 49.4471L239.893 44.6809ZM235.649 58H227.585V68H235.649V58ZM231.941 65.4554L244.677 42.8634L235.965 37.9526L223.229 60.5446L231.941 65.4554ZM244.656 37.9159L232.624 16.9879L223.954 21.9721L235.986 42.9001L244.656 37.9159ZM228.289 24.48H236.993V14.48H228.289V24.48ZM232.658 21.9709L241.042 36.5629L249.712 31.5811L241.328 16.9891L232.658 21.9709ZM249.777 36.4459L257.649 21.854L248.849 17.106L240.977 31.698L249.777 36.4459ZM253.249 24.48H261.313V14.48H253.249V24.48ZM256.953 17.0318L244.985 38.3438L253.705 43.2402L265.673 21.9282L256.953 17.0318ZM245.008 43.2794L257.744 65.4874L266.418 60.5126L253.682 38.3046L245.008 43.2794ZM262.081 58H253.377V68H262.081V58Z" fill="#FFC107" mask="url(#path-1-outside-1_1_19)"/>
<g clip-path="url(#clip0_1_19)">
<path d="M6.016 63V19.48H20.352C24.9173 19.48 28.3307 20.632 30.592 22.936C32.896 25.24 34.048 28.312 34.048 32.152V35.544C34.048 39.384 32.896 42.4773 30.592 44.824C28.3307 47.128 24.9173 48.28 20.352 48.28H13.696V63H6.016ZM20.352 26.84H13.696V40.92H20.352C22.2293 40.92 23.6587 40.4507 24.64 39.512C25.664 38.5733 26.176 37.2507 26.176 35.544V32.152C26.176 30.488 25.664 29.1867 24.64 28.248C23.6587 27.3093 22.2293 26.84 20.352 26.84ZM73.55 36.632V45.784C73.55 51.3307 72.1633 55.704 69.39 58.904C66.6167 62.0613 62.5633 63.64 57.23 63.64C51.854 63.64 47.7793 62.0613 45.006 58.904C42.2753 55.704 40.91 51.3307 40.91 45.784V36.632C40.91 31.0853 42.2753 26.7333 45.006 23.576C47.7793 20.4187 51.854 18.84 57.23 18.84C62.5633 18.84 66.6167 20.4187 69.39 23.576C72.1633 26.7333 73.55 31.0853 73.55 36.632ZM65.678 36.632C65.678 33.1333 64.9953 30.5093 63.63 28.76C62.2647 26.968 60.1313 26.072 57.23 26.072C54.3287 26.072 52.1953 26.968 50.83 28.76C49.4647 30.5093 48.782 33.1333 48.782 36.632V45.784C48.782 49.2827 49.4647 51.928 50.83 53.72C52.1953 55.512 54.3287 56.408 57.23 56.408C60.1313 56.408 62.2647 55.512 63.63 53.72C64.9953 51.928 65.678 49.2827 65.678 45.784V36.632ZM106.808 63L95.9275 43.992C95.2022 44.8027 94.4555 45.6133 93.6875 46.424C92.9622 47.2347 92.1942 48.0667 91.3835 48.92V63H83.7035V19.48H91.3835V40.152C94.6262 36.44 97.3995 32.92 99.7035 29.592C102.008 26.2213 103.992 22.8507 105.656 19.48H114.04C112.205 23.1493 110.242 26.6267 108.152 29.912C106.104 33.1547 103.928 36.1627 101.624 38.936L116.088 63H106.808ZM148.357 55.64V63H123.141V19.48H147.717V26.84H130.821V37.272H145.797V44.632H130.821V55.64H148.357ZM138.693 14.872H132.229L138.373 4.248L145.285 7.192L138.693 14.872ZM157.454 63V19.48H172.174C177.379 19.48 181.347 20.9307 184.078 23.832C186.808 26.7333 188.174 31 188.174 36.632V45.784C188.174 51.4587 186.808 55.7467 184.078 58.648C181.347 61.5493 177.379 63 172.174 63H157.454ZM171.854 26.84H165.134V55.64H171.854C174.883 55.64 177.038 54.8933 178.318 53.4C179.64 51.9067 180.302 49.368 180.302 45.784V36.632C180.302 33.0907 179.64 30.5733 178.318 29.08C177.038 27.5867 174.883 26.84 171.854 26.84ZM223.545 55.64V63H198.329V19.48H222.905V26.84H206.009V37.272H220.985V44.632H206.009V55.64H223.545ZM253.377 63L244.289 47.064L235.649 63H227.585L240.321 40.408L228.289 19.48H236.993L245.377 34.072L253.249 19.48H261.313L249.345 40.792L262.081 63H253.377Z" fill="#2B2B2A"/>
</g>
<g clip-path="url(#clip1_1_19)">
<path d="M6.016 63V19.48H20.352C24.9173 19.48 28.3307 20.632 30.592 22.936C32.896 25.24 34.048 28.312 34.048 32.152V35.544C34.048 39.384 32.896 42.4773 30.592 44.824C28.3307 47.128 24.9173 48.28 20.352 48.28H13.696V63H6.016ZM20.352 26.84H13.696V40.92H20.352C22.2293 40.92 23.6587 40.4507 24.64 39.512C25.664 38.5733 26.176 37.2507 26.176 35.544V32.152C26.176 30.488 25.664 29.1867 24.64 28.248C23.6587 27.3093 22.2293 26.84 20.352 26.84ZM73.55 36.632V45.784C73.55 51.3307 72.1633 55.704 69.39 58.904C66.6167 62.0613 62.5633 63.64 57.23 63.64C51.854 63.64 47.7793 62.0613 45.006 58.904C42.2753 55.704 40.91 51.3307 40.91 45.784V36.632C40.91 31.0853 42.2753 26.7333 45.006 23.576C47.7793 20.4187 51.854 18.84 57.23 18.84C62.5633 18.84 66.6167 20.4187 69.39 23.576C72.1633 26.7333 73.55 31.0853 73.55 36.632ZM65.678 36.632C65.678 33.1333 64.9953 30.5093 63.63 28.76C62.2647 26.968 60.1313 26.072 57.23 26.072C54.3287 26.072 52.1953 26.968 50.83 28.76C49.4647 30.5093 48.782 33.1333 48.782 36.632V45.784C48.782 49.2827 49.4647 51.928 50.83 53.72C52.1953 55.512 54.3287 56.408 57.23 56.408C60.1313 56.408 62.2647 55.512 63.63 53.72C64.9953 51.928 65.678 49.2827 65.678 45.784V36.632ZM106.808 63L95.9275 43.992C95.2022 44.8027 94.4555 45.6133 93.6875 46.424C92.9622 47.2347 92.1942 48.0667 91.3835 48.92V63H83.7035V19.48H91.3835V40.152C94.6262 36.44 97.3995 32.92 99.7035 29.592C102.008 26.2213 103.992 22.8507 105.656 19.48H114.04C112.205 23.1493 110.242 26.6267 108.152 29.912C106.104 33.1547 103.928 36.1627 101.624 38.936L116.088 63H106.808ZM148.357 55.64V63H123.141V19.48H147.717V26.84H130.821V37.272H145.797V44.632H130.821V55.64H148.357ZM138.693 14.872H132.229L138.373 4.248L145.285 7.192L138.693 14.872ZM157.454 63V19.48H172.174C177.379 19.48 181.347 20.9307 184.078 23.832C186.808 26.7333 188.174 31 188.174 36.632V45.784C188.174 51.4587 186.808 55.7467 184.078 58.648C181.347 61.5493 177.379 63 172.174 63H157.454ZM171.854 26.84H165.134V55.64H171.854C174.883 55.64 177.038 54.8933 178.318 53.4C179.64 51.9067 180.302 49.368 180.302 45.784V36.632C180.302 33.0907 179.64 30.5733 178.318 29.08C177.038 27.5867 174.883 26.84 171.854 26.84ZM223.545 55.64V63H198.329V19.48H222.905V26.84H206.009V37.272H220.985V44.632H206.009V55.64H223.545ZM253.377 63L244.289 47.064L235.649 63H227.585L240.321 40.408L228.289 19.48H236.993L245.377 34.072L253.249 19.48H261.313L249.345 40.792L262.081 63H253.377Z" fill="white"/>
</g>
<defs>
<clipPath id="clip0_1_19">
<rect width="264" height="17" fill="white" transform="translate(0 32)"/>
</clipPath>
<clipPath id="clip1_1_19">
<rect width="273" height="28" fill="white" transform="translate(0 49)"/>
</clipPath>
</defs>
</svg>
